{"title":"Tom.And.Jerry.The.Lost.Dragon.2014.1080p.BluRay.H264.AAC..Mp4.Ra","uid":11172497,"size":912696160,"categoryP":"video","categoryS":"movies","magnet":"?xt=urn:btih:536974ff40d8ab43203bce0c41edc2ba864d881c&amp;dn=Tom.And.Jerry.The.Lost.Dragon.2014.1080p.BluRay.H264.AAC..Mp4.Ra&amp;tr=udp%3A%2F%2Ftracker.openbittorrent.com%3A80&amp;tr=udp%3A%2F%2Fopen.demonii.com%3A1337&amp;tr=udp%3A%2F%2Ftracker.coppersurfer.tk%3A6969&amp;tr=udp%3A%2F%2Fexodus.desync.com%3A6969","seeders":1,"leechers":0,"uploader":"Raven1969","files":-1,"time":1412718744,"description":"Tom.And.Jerry.The.Lost.Dragon.2014.1080p.BluRay.H264.AAC..Mp4.Raven.\n\n\n\n\n\nEnglish, French, German, Indonesian, Japanese, Arabic, Vietnamese subs included.  \n\n\n\n\n\nRuntime:\n57 Mins\n\n\n\nScreen images:\n\n\n &lt;a href=&quot;\nhttp://i.imgur.com/ZAhenkL.png&quot; rel=&quot;nofollow&quot; target=&quot;_NEW&quot;&gt;\nhttp://i.imgur.com/ZAhenkL.png&lt;/a&gt;\n\n\n &lt;a href=&quot;\nhttp://i.imgur.com/m3afUTX.png&quot; rel=&quot;nofollow&quot; target=&quot;_NEW&quot;&gt;\nhttp://i.imgur.com/m3afUTX.png&lt;/a&gt;\n\n\n &lt;a href=&quot;\nhttp://i.imgur.com/XFIuj2r.png&quot; rel=&quot;nofollow&quot; target=&quot;_NEW&quot;&gt;\nhttp://i.imgur.com/XFIuj2r.png&lt;/a&gt;\n\n\n &lt;a href=&quot;\nhttp://i.imgur.com/B249alV.png&quot; rel=&quot;nofollow&quot; target=&quot;_NEW&quot;&gt;\nhttp://i.imgur.com/B249alV.png&lt;/a&gt;\n\n\n &lt;a href=&quot;\nhttp://i.imgur.com/TGC15at.png&quot; rel=&quot;nofollow&quot; target=&quot;_NEW&quot;&gt;\nhttp://i.imgur.com/TGC15at.png&lt;/a&gt;\n\n\n\n\n\n\nIMDB:\n\n\n\n\n &lt;a href=&quot;\nhttp://www.imdb.com/title/tt4006794&quot; rel=&quot;nofollow&quot; target=&quot;_NEW&quot;&gt;\nhttp://www.imdb.com/title/tt4006794&lt;/a&gt;\n\n\n\n\n\n\nIMDB Rating:  7.2\n\n\n\n\n\n\nStoryline:\n\nYour favorite cat and mouse are back with song, sorcery and slapstick in this enchanted tale with two bonus cartoons. The adventure begins when Tom and Jerry happen upon a mysterious glowing egg. Little do they know, this egg was stolen from a very large fire breathing dragon! In short time, baby Puffy hatches from his egg and takes Tom as his mommy. The angry mama dragon wants her baby back, but she's not the only one...a powerful witch named Drizelda captures the baby dragon for her own wicked plans! With the help of powerful allies and animal friends, Tom and Jerry must fight tooth and claw to stop the witch and get the baby dragon back to its mother. The action takes flight in a climactic ending filled with might, magic, and cartoon mayhem of course!\n\n\n\n\nGeneral\nFormat                                   : MPEG-4\nFormat profile                           : Base Media\nCodec ID                                 : isom\nFile size                                : 850 MiB\nDuration                                 : 56mn 41s\nOverall bit rate mode                    : Variable\nOverall bit rate                         : 2 097 Kbps\nEncoded date                             : UTC 2014-10-07 19:17:34\nTagged date                              : UTC 2014-10-07 19:17:34\nWriting application                      : My MP4Box GUI 0.6.0.6 &lt;http://my-mp4box-gui.zymichost.com&gt;\n\nVideo\nID                                       : 1\nFormat                                   : AVC\nFormat/Info                              : Advanced Video Codec\nFormat profile                           : &lt;a class=&quot;__cf_email__&quot; href=&quot;/cdn-cgi/l/email-protection&quot; data-cfemail=&quot;4c04252b240c0078627c&quot;&gt;[email&amp;#160;protected]&lt;/a&gt;&lt;script cf-hash='f9e31' type=&quot;text/javascript&quot;&gt;\n/* &lt;![CDATA[ */!function(){try{var t=&quot;currentScript&quot;in document?document.currentScript:function(){for(var t=document.getElementsByTagName(&quot;script&quot;),e=t.length;e--;)if(t[e].getAttribute(&quot;cf-hash&quot;))return t[e]}();if(t&amp;&amp;t.previousSibling){var e,r,n,i,c=t.previousSibling,a=c.getAttribute(&quot;data-cfemail&quot;);if(a){for(e=&quot;&quot;,r=parseInt(a.substr(0,2),16),n=2;a.length-n;n+=2)i=parseInt(a.substr(n,2),16)^r,e+=String.fromCharCode(i);e=document.createTextNode(e),c.parentNode.replaceChild(e,c)}}}catch(u){}}();/* ]]&gt; */&lt;/script&gt;\nFormat settings, CABAC                   : Yes\nFormat settings, ReFrames                : 4 frames\nCodec ID                                 : avc1\nCodec ID/Info                            : Advanced Video Coding\nDuration                                 : 56mn 40s\nBit rate                                 : 2 000 Kbps\nMaximum bit rate                         : 9 370 Kbps\nWidth                                    : 1 920 pixels\nHeight                                   : 1 080 pixels\nDisplay aspect ratio                     : 16:9\nFrame rate mode                          : Constant\nFrame rate                               : 23.976 fps\nColor space                              : YUV\nChroma subsampling                       : 4:2:0\nBit depth                                : 8 bits\nScan type                                : Progressive\nBits/(Pixel*Frame)                       : 0.040\nStream size                              : 811 MiB (95%)\nTitle                                    : Tom.And.Jerry.The.Lost.Dragon.2014.1080p.BluRay.H264.AAC..Mp4.Raven.mp4\nWriting library                          : x264 core 142 \nLanguage                                 : English\nEncoded date                             : UTC 2014-10-07 19:10:39\nTagged date                              : UTC 2014-10-07 19:19:04\n\nAudio\nID                                       : 3\nFormat                                   : AAC\nFormat/Info                              : Advanced Audio Codec\nFormat profile                           : LC\nCodec ID                                 : 40\nDuration                                 : 56mn 41s\nBit rate mode                            : Variable\nBit rate                                 : 93.4 Kbps\nMaximum bit rate                         : 98.4 Kbps\nChannel(s)                               : 2 channels\nChannel positions                        : Front: L R\nSampling rate                            : 48.0 KHz\nCompression mode                         : Lossy\nStream size                              : 37.9 MiB (4%)\nTitle                                    : Audio AAC LC 96kb.aac\nEncoded date                             : UTC 2014-10-07 19:19:02\nTagged date                              : UTC 2014-10-07 19:19:04\n\nMenu\nID                                       : 2\nCodec ID                                 : text\nDuration                                 : 1s 0ms\nTitle                                    : Tom.And.Jerry.The.Lost.Dragon.2014.1080p.BluRay.H264.AAC..Mp4.Raven.mp4\nEncoded date                             : UTC 2014-10-07 19:11:15\nTagged date                              : UTC 2014-10-07 19:19:04\n\n\n\n\nPLEASE  SEED FOR AS LONG AS POSSIBLE TO KEEP THE TORRENT ALIVE :-)","torrent":{"xt":"urn:btih:536974ff40d8ab43203bce0c41edc2ba864d881c","amp;dn":"Tom.And.Jerry.The.Lost.Dragon.2014.1080p.BluRay.H264.AAC..Mp4.Ra","amp;tr":["udp%3A%2F%2Ftracker.openbittorrent.com%3A80","udp%3A%2F%2Fopen.demonii.com%3A1337","udp%3A%2F%2Ftracker.coppersurfer.tk%3A6969","udp%3A%2F%2Fexodus.desync.com%3A6969"],"infoHash":"536974ff40d8ab43203bce0c41edc2ba864d881c","infoHashBuffer":{"type":"Buffer","data":[83,105,116,255,64,216,171,67,32,59,206,12,65,237,194,186,134,77,136,28]},"announce":[],"urlList":[]}}